<?xml version="1.0" encoding="utf-8"?>
<!-- Generator: Adobe Illustrator 17.1.0, SVG Export Plug-In . SVG Version: 6.00 Build 0)  -->
<!DOCTYPE svg PUBLIC "-//W3C//DTD SVG 1.1//EN" "http://www.w3.org/Graphics/SVG/1.1/DTD/svg11.dtd">
<svg version="1.1" id="Layer_2" xmlns="http://www.w3.org/2000/svg" xmlns:xlink="http://www.w3.org/1999/xlink" x="0px" y="0px"
	 viewBox="0 0 400 343.4" enable-background="new 0 0 400 343.4" xml:space="preserve">
<g>
	<rect x="297.2" y="-437" fill="#2EB5E5" width="10" height="279"/>
	<g>
		<polygon fill="#2EB5E5" points="302.7,-439.3 469.9,-484.9 469.2,-499.2 		"/>
		<polygon fill="#2EB5E5" points="303.3,-442.8 421.2,-487.7 420.7,-501 		"/>
	</g>
	<g>
		<polygon fill="#2EB5E5" points="298.9,-439.3 131.7,-484.9 132.4,-499.2 		"/>
		<polygon fill="#2EB5E5" points="298.3,-442.8 180.4,-487.7 181,-501 		"/>
	</g>
	<g>
		<path fill="#29ABE2" d="M424.3-386.7c-2.5-5.1-6-9-10.4-11.6c-3.5-2-7.6-3-12.4-3c-4.8,0-11.5,1-20.3,3l-5,1.2v78.9l4.6-1.1
			c10.2-2.3,17.5-4.6,21.9-6.7c4.4-2.1,8.5-5.5,12.4-9.9c8.7-10.1,13-21.3,13-33.4C428.1-375.8,426.8-381.5,424.3-386.7z"/>
		<path fill="#29ABE2" d="M495.4-485.8l-192,49.2l2.8,279L502-201.9L495.4-485.8z M482.2-258l-40.9,9.4c-2.1-4-3.3-6.6-3.9-7.7
			l-8.6-17.5c-5.2-10.5-10.4-19.6-15.7-27.4c-5.3-7.7-10.1-12.7-14.5-15c-2.2-1.1-4.6-1.7-7.2-1.9c-2.6-0.1-5.6,0.3-9.3,1.1l-6,1.4
			v43.4c0,8.3,0.4,14.4,1.3,18.2c0.9,3.8,2.7,6.8,5.2,8.8c2.2,1.8,4.9,2.9,7.8,3.3c2.9,0.4,6.6,0.2,11.6-0.6v2.8l-79,18v-2.8
			c5-1.3,8.5-2.9,11.4-4.7c2.9-1.8,5.4-4.1,7.7-6.8c2.6-3.2,4.5-6.9,5.4-11.1c0.9-4.2,1.5-10.5,1.5-18.9v-90.3
			c0-8.4-0.6-14.5-1.5-18.3c-0.9-3.8-2.7-6.7-5.4-8.7c-2.2-1.9-4.7-3-7.7-3.4c-3-0.4-7.4-0.2-11.4,0.7v-2.8l59.5-13.6
			c10-2.3,16.5-3.7,19.6-4.4c12.8-2.3,22.8-2.9,30-1.7c8.2,1.4,14.5,4.8,19,10.3c4.5,5.5,6.7,12.5,6.7,21.1c0,12.7-4.9,24.1-14.6,34
			c-3,3-6.2,5.6-9.8,7.9c-3.6,2.3-8.4,4.8-14.4,7.5c4.9,0.9,8.6,2.2,11,3.9c1.9,1.3,3.6,3,5.2,5.2c1.6,2.2,3.9,6.2,7,12.1
			c7.3,13.3,12.9,22.9,16.6,29c3.8,6,6.9,10.3,9.5,12.9c2.1,2.1,3.9,3.4,5.9,3.9c1.9,0.5,4.8,0.6,7.8,0.1V-258z"/>
	</g>
	<g>
		<path fill="#29A3CE" d="M297.7-436.9l-192.9-46.6l-2.8,284l196.8,41.6L297.7-436.9z M280.2-387c-5-0.8-8.5-1-11.5-0.7
			c-3,0.4-5.6,1.5-7.8,3.4c-2.6,2-4.4,4.9-5.3,8.7c-0.9,3.8-1.4,9.9-1.4,18.3v90.3c0,8.4,0.5,14.7,1.4,18.9
			c0.9,4.2,2.7,7.9,5.3,11.1c2.2,2.8,4.8,5.1,7.7,6.8c2.9,1.8,6.6,3.3,11.6,4.7v2.8l-79-18v-2.8c5,0.8,8.6,1,11.5,0.6
			c2.9-0.4,5.5-1.5,7.7-3.3c2.6-2,4.3-5,5.3-8.8c0.9-3.8,1.5-9.9,1.5-18.2v-43.4l-6.1-1.4c-3.7-0.8-6.9-1.2-9.4-1.1
			c-2.6,0.1-5,0.7-7.2,1.9c-4.4,2.3-9.2,7.3-14.5,15c-5.3,7.8-10.5,16.9-15.7,27.4l-8.7,17.5c-0.6,1.1-2.1,3.7-4.2,7.7l-41.3-9.4
			v-2.8c4,0.4,6.3,0.4,8.2-0.1c1.9-0.5,4-1.8,6.1-3.9c2.6-2.5,5.8-6.8,9.5-12.9c3.8-6,9.3-15.7,16.7-29c3.1-5.8,5.5-9.8,7.1-12.1
			c1.6-2.2,3.3-4,5.2-5.2c2.4-1.7,6.1-2.9,11-3.9c-6-2.7-10.8-5.2-14.4-7.5c-3.6-2.3-6.9-4.9-9.8-7.9c-9.7-9.9-14.6-21.2-14.6-34
			c0-8.6,2.2-15.6,6.7-21.1c4.5-5.5,10.8-8.9,19-10.3c7.3-1.2,17.3-0.6,30.1,1.7c3.1,0.6,9.7,2.1,19.7,4.4l59.6,13.6V-387z"/>
		<path fill="#29A3CE" d="M189.3-399.3c-4.5,2.7-7.9,6.5-10.4,11.6c-2.5,5.1-3.8,10.9-3.8,17.3c0,12.1,4.3,23.2,13,33.4
			c3.9,4.5,8,7.8,12.4,9.9c4.4,2.2,11.8,4.4,22,6.7l4.7,1.1v-78.9l-5.1-1.2c-8.8-2-15.6-3-20.4-3
			C196.9-402.3,192.8-401.3,189.3-399.3z"/>
	</g>
</g>
<g>
	<rect x="195.2" y="64" fill="#82878C" width="10" height="279"/>
	<g>
		<polygon fill="#82878C" points="200.7,61.7 367.9,16.1 367.2,1.8 		"/>
		<polygon fill="#82878C" points="201.3,58.2 319.2,13.3 318.7,0 		"/>
	</g>
	<g>
		<polygon fill="#82878C" points="196.9,61.7 29.7,16.1 30.4,1.8 		"/>
		<polygon fill="#82878C" points="196.3,58.2 78.4,13.3 79,0 		"/>
	</g>
	<g>
		<path fill="#82878C" d="M322.3,114.3c-2.5-5.1-6-9-10.4-11.6c-3.5-2-7.6-3-12.4-3c-4.8,0-11.5,1-20.3,3l-5,1.2v78.9l4.6-1.1
			c10.2-2.3,17.5-4.6,21.9-6.7c4.4-2.1,8.5-5.5,12.4-9.9c8.7-10.1,13-21.3,13-33.4C326.1,125.2,324.8,119.5,322.3,114.3z"/>
		<path fill="#82878C" d="M393.4,15.2l-192,49.2l2.8,279L400,299.1L393.4,15.2z M380.2,243l-40.9,9.4c-2.1-4-3.3-6.6-3.9-7.7
			l-8.6-17.5c-5.2-10.5-10.4-19.6-15.7-27.4c-5.3-7.7-10.1-12.7-14.5-15c-2.2-1.1-4.6-1.7-7.2-1.9c-2.6-0.1-5.6,0.3-9.3,1.1l-6,1.4
			v43.4c0,8.3,0.4,14.4,1.3,18.2c0.9,3.8,2.7,6.8,5.2,8.8c2.2,1.8,4.9,2.9,7.8,3.3c2.9,0.4,6.6,0.2,11.6-0.6v2.8l-79,18v-2.8
			c5-1.3,8.5-2.9,11.4-4.7c2.9-1.8,5.4-4.1,7.7-6.8c2.6-3.2,4.5-6.9,5.4-11.1c0.9-4.2,1.5-10.5,1.5-18.9v-90.3
			c0-8.4-0.6-14.5-1.5-18.3c-0.9-3.8-2.7-6.7-5.4-8.7c-2.2-1.9-4.7-3-7.7-3.4c-3-0.4-7.4-0.2-11.4,0.7v-2.8l59.5-13.6
			c10-2.3,16.5-3.7,19.6-4.4c12.8-2.3,22.8-2.9,30-1.7c8.2,1.4,14.5,4.8,19,10.3c4.5,5.5,6.7,12.5,6.7,21.1c0,12.7-4.9,24.1-14.6,34
			c-3,3-6.2,5.6-9.8,7.9c-3.6,2.3-8.4,4.8-14.4,7.5c4.9,0.9,8.6,2.2,11,3.9c1.9,1.3,3.6,3,5.2,5.2c1.6,2.2,3.9,6.2,7,12.1
			c7.3,13.3,12.9,22.9,16.6,29c3.8,6,6.9,10.3,9.5,12.9c2.1,2.1,3.9,3.4,5.9,3.9c1.9,0.5,4.8,0.6,7.8,0.1V243z"/>
	</g>
	<g>
		<path fill="#82878C" d="M195.7,64.1L2.8,17.5L0,301.5l196.8,41.6L195.7,64.1z M178.2,114c-5-0.8-8.5-1-11.5-0.7
			c-3,0.4-5.6,1.5-7.8,3.4c-2.6,2-4.4,4.9-5.3,8.7c-0.9,3.8-1.4,9.9-1.4,18.3V234c0,8.4,0.5,14.7,1.4,18.9c0.9,4.2,2.7,7.9,5.3,11.1
			c2.2,2.8,4.8,5.1,7.7,6.8c2.9,1.8,6.6,3.3,11.6,4.7v2.8l-79-18v-2.8c5,0.8,8.6,1,11.5,0.6c2.9-0.4,5.5-1.5,7.7-3.3
			c2.6-2,4.3-5,5.3-8.8c0.9-3.8,1.5-9.9,1.5-18.2v-43.4l-6.1-1.4c-3.7-0.8-6.9-1.2-9.4-1.1c-2.6,0.1-5,0.7-7.2,1.9
			c-4.4,2.3-9.2,7.3-14.5,15c-5.3,7.8-10.5,16.9-15.7,27.4l-8.7,17.5c-0.6,1.1-2.1,3.7-4.2,7.7L18.2,242v-2.8c4,0.4,6.3,0.4,8.2-0.1
			c1.9-0.5,4-1.8,6.1-3.9c2.6-2.5,5.8-6.8,9.5-12.9c3.8-6,9.3-15.7,16.7-29c3.1-5.8,5.5-9.8,7.1-12.1c1.6-2.2,3.3-4,5.2-5.2
			c2.4-1.7,6.1-2.9,11-3.9c-6-2.7-10.8-5.2-14.4-7.5c-3.6-2.3-6.9-4.9-9.8-7.9c-9.7-9.9-14.6-21.2-14.6-34c0-8.6,2.2-15.6,6.7-21.1
			c4.5-5.5,10.8-8.9,19-10.3c7.3-1.2,17.3-0.6,30.1,1.7c3.1,0.6,9.7,2.1,19.7,4.4l59.6,13.6V114z"/>
		<path fill="#82878C" d="M87.3,101.7c-4.5,2.7-7.9,6.5-10.4,11.6c-2.5,5.1-3.8,10.9-3.8,17.3c0,12.1,4.3,23.2,13,33.4
			c3.9,4.5,8,7.8,12.4,9.9c4.4,2.2,11.8,4.4,22,6.7l4.7,1.1v-78.9l-5.1-1.2c-8.8-2-15.6-3-20.4-3C94.9,98.7,90.8,99.7,87.3,101.7z"
			/>
	</g>
</g>
<g id="Layer_1">
</g>
</svg>
